<svg xmlns="http://www.w3.org/2000/svg" width="512" height="512" viewBox="0 0 512 512" role="img" aria-labelledby="title desc">
  <title id="title">JStack mark</title>
  <desc id="desc">A layered letter J in blue, cyan, and emerald on a dark field.</desc>
  <defs>
    <linearGradient id="background" x1="0" y1="0" x2="512" y2="512" gradientUnits="userSpaceOnUse">
      <stop stop-color="#07131E"/>
      <stop offset="1" stop-color="#091923"/>
    </linearGradient>
    <linearGradient id="accent" x1="128" y1="72" x2="388" y2="430" gradientUnits="userSpaceOnUse">
      <stop stop-color="#60A5FA"/>
      <stop offset="0.5" stop-color="#22D3EE"/>
      <stop offset="1" stop-color="#34D399"/>
    </linearGradient>
    <radialGradient id="glow" cx="0" cy="0" r="1" gradientTransform="translate(296 228) rotate(118) scale(310)" gradientUnits="userSpaceOnUse">
      <stop stop-color="#22D3EE" stop-opacity="0.17"/>
      <stop offset="1" stop-color="#22D3EE" stop-opacity="0"/>
    </radialGradient>
    <filter id="shadow" x="-40%" y="-40%" width="180%" height="200%">
      <feDropShadow dx="0" dy="24" stdDeviation="28" flood-color="#000811" flood-opacity="0.55"/>
    </filter>
  </defs>
  <rect width="512" height="512" rx="80" fill="url(#background)"/>
  <rect width="512" height="512" rx="80" fill="url(#glow)"/>
  <rect x="1" y="1" width="510" height="510" rx="79" fill="none" stroke="#E2E8F0" stroke-opacity="0.1" stroke-width="2"/>
  <g transform="translate(100 68)" filter="url(#shadow)">
    <path d="M72 20H294V218C294 326 221 390 116 390C67 390 31 377 8 358L54 289C72 306 91 315 118 315C168 315 198 284 198 224V108H72Z" fill="none" stroke="#60A5FA" stroke-opacity="0.2" stroke-width="24" transform="translate(-28 28)"/>
    <path d="M72 20H294V218C294 326 221 390 116 390C67 390 31 377 8 358L54 289C72 306 91 315 118 315C168 315 198 284 198 224V108H72Z" fill="none" stroke="#22D3EE" stroke-opacity="0.42" stroke-width="24" transform="translate(-14 14)"/>
    <path d="M72 20H294V218C294 326 221 390 116 390C67 390 31 377 8 358L54 289C72 306 91 315 118 315C168 315 198 284 198 224V108H72Z" fill="url(#accent)"/>
  </g>
</svg>
